<svg xmlns="http://www.w3.org/2000/svg" width="689" height="69" viewBox="0 0 689 69" version="1.1">
	<path d="M 9 2.367 L 1.500 3.500 1.216 17.500 C 0.908 32.666, 2.104 43.291, 4.753 48.925 C 7.095 53.908, 14.699 61.074, 21.324 64.542 L 26.904 67.464 32.475 64.732 C 39.957 61.062, 46.401 54.923, 49.570 48.446 C 51.931 43.622, 52.282 41.333, 53.230 24.638 C 53.807 14.479, 54.035 5.532, 53.737 4.756 C 52.515 1.573, 24.246 0.063, 9 2.367 M 323 9 C 320.592 11.408, 320.465 13.322, 322.571 15.429 C 324.436 17.294, 328.117 17.483, 329.800 15.800 C 331.701 13.899, 331.258 9.208, 329.066 8.035 C 326.318 6.565, 325.269 6.731, 323 9 M 561.605 8.299 C 559.448 9.877, 559.751 14.830, 562.095 16.296 C 564.386 17.730, 568.755 16.348, 569.516 13.949 C 570.332 11.379, 567.592 7, 565.168 7 C 564.186 7, 562.583 7.585, 561.605 8.299 M 114 32 L 114 56 118 56 L 122 56 122 49.559 C 122 46.016, 122.371 42.888, 122.825 42.608 C 123.279 42.327, 126.755 45.226, 130.549 49.049 L 137.446 56 143.094 56 L 148.742 56 139.848 47.296 L 130.953 38.592 138.703 30.796 L 146.453 23 140.942 23 C 135.588 23, 135.278 23.156, 130 28.500 C 127.013 31.525, 123.990 34, 123.284 34 C 122.304 34, 122 30.918, 122 21 L 122 8 118 8 L 114 8 114 32 M 220 16.526 L 220 25.051 217.050 23.526 C 212.741 21.298, 204.449 21.559, 200.418 24.050 C 191.309 29.681, 189.709 43.044, 197.133 51.499 C 201.990 57.030, 211.411 58.340, 217.750 54.365 C 219.716 53.132, 220 53.146, 220 54.477 C 220 55.587, 221.084 56, 224 56 L 228 56 228 32 L 228 8 224 8 L 220 8 220 16.526 M 302 16.526 L 302 25.051 299.050 23.526 C 294.741 21.298, 286.449 21.559, 282.418 24.050 C 273.309 29.681, 271.709 43.044, 279.133 51.499 C 283.990 57.030, 293.411 58.340, 299.750 54.365 C 301.716 53.132, 302 53.146, 302 54.477 C 302 55.587, 303.084 56, 306 56 L 310 56 310 32 L 310 8 306 8 L 302 8 302 16.526 M 579 32 L 579 56 583 56 L 587 56 587 49.559 C 587 46.016, 587.371 42.888, 587.825 42.608 C 588.279 42.327, 591.755 45.226, 595.549 49.049 L 602.446 56 608.094 56 L 613.742 56 604.848 47.296 L 595.953 38.592 603.703 30.796 L 611.453 23 605.942 23 C 600.588 23, 600.278 23.156, 595 28.500 C 592.013 31.525, 588.990 34, 588.284 34 C 587.304 34, 587 30.918, 587 21 L 587 8 583 8 L 579 8 579 32 M 78.328 11.938 C 72.960 14.375, 70.667 17.907, 70.753 23.603 C 70.874 31.604, 74.492 34.767, 86 36.933 C 93.942 38.428, 97 40.244, 97 43.466 C 97 46.728, 93.474 49, 88.412 49 C 83.957 49, 79 46.023, 79 43.348 C 79 42.180, 78.268 41.988, 75.750 42.495 C 69.008 43.852, 69.043 43.824, 70.177 47.078 C 73.179 55.689, 89.534 59.610, 98.842 53.950 C 103.098 51.362, 105.273 47.627, 105.273 42.906 C 105.273 34.833, 101.067 31.303, 88.724 29.018 C 84.072 28.157, 81.509 27.138, 80.549 25.766 C 77.575 21.520, 83.032 16.189, 89.009 17.502 C 90.624 17.857, 93.061 19.473, 94.425 21.093 C 96.652 23.740, 97.315 23.973, 100.952 23.392 C 103.178 23.036, 105 22.418, 105 22.020 C 105 19.776, 99.872 14.191, 96.030 12.250 C 90.546 9.479, 83.997 9.364, 78.328 11.938 M 445 33.500 L 445 56 456.750 55.994 C 475.704 55.985, 481 53.303, 481 43.713 C 481 39.366, 480.578 38.323, 477.750 35.683 L 474.500 32.649 477.250 29.901 C 480.459 26.695, 480.915 21.671, 478.434 16.872 C 476.003 12.171, 471.835 11, 457.532 11 L 445 11 445 33.500 M 532.802 17.250 L 532.500 22.500 528.750 22.810 C 525.357 23.091, 525 23.395, 525 26 C 525 28.605, 525.357 28.909, 528.750 29.190 L 532.500 29.500 533 40.150 C 533.404 48.766, 533.865 51.202, 535.409 52.904 C 537.818 55.560, 544.031 57.272, 548.330 56.466 C 553.613 55.475, 554.182 54.820, 552.915 51.187 C 551.875 48.203, 551.577 48.044, 548.075 48.604 C 542.220 49.540, 541 47.612, 541 37.429 L 541 29 546.500 29 C 551.923 29, 552 28.959, 552 26.052 C 552 23.201, 551.828 23.095, 546.750 22.802 L 541.500 22.500 541.198 17.250 L 540.895 12 537 12 L 533.105 12 532.802 17.250 M 454 24 L 454 30 461 30 C 466.667 30, 468.381 29.619, 470 28 C 475.254 22.746, 470.540 18, 460.066 18 L 454 18 454 24 M 157.284 24.093 C 148.278 29.862, 146.757 43.098, 154.133 51.499 C 158.990 57.030, 168.411 58.340, 174.750 54.365 C 176.716 53.132, 177 53.146, 177 54.477 C 177 55.587, 178.084 56, 181 56 L 185 56 185 39.500 L 185 23 181 23 C 178.800 23, 177 23.462, 177 24.026 C 177 24.614, 175.741 24.400, 174.050 23.526 C 169.730 21.292, 161.207 21.581, 157.284 24.093 M 243.743 24.529 C 238.867 27.842, 236.700 32.235, 236.604 39.002 C 236.434 51.020, 246.657 59.054, 258.175 55.953 C 262.736 54.725, 269.901 48.477, 268.400 47.036 C 266.604 45.312, 262.424 45.675, 259 47.852 C 254.693 50.591, 250.451 50.083, 247.250 46.445 C 242.872 41.470, 243.768 41, 257.630 41 L 270.260 41 269.740 36.386 C 268.762 27.706, 262.155 22, 253.084 22 C 248.720 22, 246.633 22.565, 243.743 24.529 M 395.750 24.068 C 393.688 25.157, 392 26.487, 392 27.024 C 392 27.561, 391.550 28, 391 28 C 390.450 28, 390 26.875, 390 25.500 C 390 23.250, 389.600 23, 386 23 L 382 23 382 39.500 L 382 56 386 56 L 390 56 390 49.943 C 390 37.583, 393.099 31.822, 400.495 30.435 C 403.160 29.935, 403.902 29.240, 404.393 26.784 C 404.727 25.115, 405 23.356, 405 22.875 C 405 21.332, 399.619 22.026, 395.750 24.068 M 415.500 22.945 C 412.325 24.245, 409.962 27.458, 409.334 31.330 C 408.839 34.379, 409.196 35.350, 411.749 37.902 C 413.396 39.550, 416.039 41.191, 417.622 41.549 C 425.951 43.435, 428.153 44.235, 428.663 45.565 C 430.297 49.821, 421.708 51.708, 417.925 47.925 C 416.235 46.235, 415.121 45.973, 411.925 46.513 C 407.493 47.261, 407.626 47.085, 409.085 50.288 C 412.288 57.317, 428.167 58.950, 434.595 52.911 C 436.377 51.237, 437 49.589, 437 46.548 C 437 39.464, 435.428 38.231, 422.250 34.973 C 419.256 34.233, 418 33.402, 418 32.161 C 418 27.726, 423.675 26.584, 427.367 30.276 C 429.182 32.091, 430.299 32.419, 432.873 31.892 C 434.648 31.529, 436.340 30.993, 436.632 30.702 C 437.644 29.689, 434.855 25.883, 431.686 23.950 C 428.335 21.907, 419.393 21.352, 415.500 22.945 M 621.743 24.529 C 616.867 27.842, 614.700 32.235, 614.604 39.002 C 614.434 51.020, 624.657 59.054, 636.175 55.953 C 640.736 54.725, 647.901 48.477, 646.400 47.036 C 644.604 45.312, 640.424 45.675, 637 47.852 C 632.693 50.591, 628.451 50.083, 625.250 46.445 C 620.872 41.470, 621.768 41, 635.630 41 L 648.260 41 647.740 36.386 C 646.762 27.706, 640.155 22, 631.084 22 C 626.720 22, 624.633 22.565, 621.743 24.529 M 667.520 23.566 C 665.597 24.569, 664.415 24.744, 664.187 24.060 C 663.992 23.477, 662.071 23, 659.917 23 L 656 23 656 39.500 L 656 56 660 56 L 664 56 664.006 47.750 C 664.012 38.901, 665.225 32.888, 667.362 31.114 C 668.093 30.508, 670.080 29.734, 671.779 29.394 C 674.251 28.900, 675.380 29.289, 677.434 31.343 C 679.879 33.788, 680 34.430, 680 44.955 L 680 56 684 56 L 688 56 688 43.450 C 688 30.042, 687.092 26.578, 682.783 23.561 C 679.899 21.540, 671.399 21.543, 667.520 23.566 M 321.773 41.250 L 321.500 59.500 319 59.851 C 316.125 60.254, 315.037 61.579, 315.015 64.705 C 315.003 66.431, 315.748 67.050, 318.446 67.556 C 323.505 68.505, 327.229 66.914, 329.248 62.940 C 330.723 60.038, 330.997 56.644, 330.998 41.250 L 331 23 326.523 23 L 322.045 23 321.773 41.250 M 340.162 35.750 C 340.557 49.591, 341.471 52.310, 346.661 55.085 C 350.232 56.994, 358.188 56.762, 361.402 54.656 C 363.650 53.183, 364 53.159, 364 54.477 C 364 55.587, 365.084 56, 368 56 L 372 56 372 39.500 L 372 23 368 23 L 364 23 364 32.550 C 364 45.335, 362.113 49, 355.529 49 C 354.260 49, 352.168 48.147, 350.880 47.104 C 348.729 45.362, 348.508 44.305, 348.159 34.104 L 347.779 23 343.789 23 L 339.799 23 340.162 35.750 M 488.162 35.750 C 488.557 49.591, 489.471 52.310, 494.661 55.085 C 498.232 56.994, 506.188 56.762, 509.402 54.656 C 511.650 53.183, 512 53.159, 512 54.477 C 512 55.587, 513.084 56, 516 56 L 520 56 520 39.500 L 520 23 516 23 L 512 23 512 32.550 C 512 45.335, 510.113 49, 503.529 49 C 502.260 49, 500.168 48.147, 498.880 47.104 C 496.729 45.362, 496.508 44.305, 496.159 34.104 L 495.779 23 491.789 23 L 487.799 23 488.162 35.750 M 561 39.500 L 561 56 565 56 L 569 56 569 39.500 L 569 23 565 23 L 561 23 561 39.500 M 160.759 31.348 C 157.359 34.499, 156.506 38.881, 158.407 43.432 C 162.098 52.264, 174.820 50.805, 176.595 41.346 C 178.384 31.809, 167.605 25.003, 160.759 31.348 M 203.759 31.348 C 200.359 34.499, 199.506 38.881, 201.407 43.432 C 205.098 52.264, 217.820 50.805, 219.595 41.346 C 221.384 31.809, 210.605 25.003, 203.759 31.348 M 247.396 31.336 C 243.375 34.794, 244.969 36, 253.559 36 C 260.261 36, 261 35.807, 261 34.057 C 261 29.138, 252.035 27.345, 247.396 31.336 M 285.759 31.348 C 282.359 34.499, 281.506 38.881, 283.407 43.432 C 287.098 52.264, 299.820 50.805, 301.595 41.346 C 303.384 31.809, 292.605 25.003, 285.759 31.348 M 625.396 31.336 C 621.375 34.794, 622.969 36, 631.559 36 C 638.261 36, 639 35.807, 639 34.057 C 639 29.138, 630.035 27.345, 625.396 31.336 M 454 43.109 L 454 49.219 461.609 48.834 C 468.146 48.504, 469.487 48.117, 471.132 46.086 C 472.368 44.559, 472.817 42.973, 472.401 41.611 C 471.143 37.500, 470.002 37, 461.878 37 L 454 37 454 43.109" stroke="none" fill="black" fill-rule="evenodd"/>
</svg>